<svg width="41" height="40" viewBox="0 0 41 40" fill="none" xmlns="http://www.w3.org/2000/svg">
<path fill-rule="evenodd" clip-rule="evenodd" d="M20.1238 0.324707C9.07378 0.324707 0.123779 9.27471 0.123779 20.3247C0.123779 29.1747 5.84878 36.6497 13.7988 39.2997C14.7988 39.4747 15.1738 38.8747 15.1738 38.3497C15.1738 37.8747 15.1488 36.2997 15.1488 34.6247C10.1238 35.5497 8.82378 33.3997 8.42378 32.2747C8.19878 31.6997 7.22378 29.9247 6.37378 29.4497C5.67378 29.0747 4.67378 28.1497 6.34878 28.1247C7.92378 28.0997 9.04878 29.5747 9.42378 30.1747C11.2238 33.1997 14.0988 32.3497 15.2488 31.8247C15.4238 30.5247 15.9488 29.6497 16.5238 29.1497C12.0738 28.6497 7.42378 26.9247 7.42378 19.2747C7.42378 17.0997 8.19878 15.2997 9.47378 13.8997C9.27378 13.3997 8.57378 11.3497 9.67378 8.59971C9.67378 8.59971 11.3488 8.07471 15.1738 10.6497C16.7738 10.1997 18.4738 9.97471 20.1738 9.97471C21.8738 9.97471 23.5738 10.1997 25.1738 10.6497C28.9988 8.04971 30.6738 8.59971 30.6738 8.59971C31.7738 11.3497 31.0738 13.3997 30.8738 13.8997C32.1488 15.2997 32.9238 17.0747 32.9238 19.2747C32.9238 26.9497 28.2488 28.6497 23.7988 29.1497C24.5238 29.7747 25.1488 30.9747 25.1488 32.8497C25.1488 35.5247 25.1238 37.6747 25.1238 38.3497C25.1238 38.8747 25.4988 39.4997 26.4988 39.2997C30.4691 37.9592 33.9191 35.4075 36.3632 32.0036C38.8074 28.5998 40.1226 24.5152 40.1238 20.3247C40.1238 9.27471 31.1738 0.324707 20.1238 0.324707Z" fill="black"/>
</svg>
