<svg width="41" height="41" viewBox="0 0 41 41" fill="none" xmlns="http://www.w3.org/2000/svg">
<path fill-rule="evenodd" clip-rule="evenodd" d="M0.541993 4.17337C0.541993 3.28706 0.894076 2.43706 1.52079 1.81034C2.1475 1.18363 2.99751 0.831547 3.88381 0.831547H37.1965C37.6358 0.83083 38.0708 0.916753 38.4768 1.0844C38.8828 1.25204 39.2517 1.49811 39.5624 1.80852C39.8732 2.11893 40.1197 2.48759 40.2878 2.89338C40.4558 3.29918 40.5422 3.73414 40.542 4.17337V37.4861C40.5425 37.9254 40.4563 38.3605 40.2885 38.7665C40.1206 39.1725 39.8744 39.5414 39.5638 39.8521C39.2533 40.1628 38.8845 40.4093 38.4786 40.5773C38.0727 40.7454 37.6377 40.8318 37.1983 40.8315H3.88381C3.4448 40.8315 3.0101 40.745 2.60453 40.577C2.19897 40.4089 1.83049 40.1626 1.52015 39.8521C1.20981 39.5416 0.963687 39.173 0.795851 38.7673C0.628016 38.3617 0.541754 37.9269 0.541993 37.4879V4.17337ZM16.3747 16.0825H21.7911V18.8025C22.5729 17.2388 24.5729 15.8315 27.5784 15.8315C33.3402 15.8315 34.7056 18.9461 34.7056 24.6606V35.2461H28.8747V25.9625C28.8747 22.7079 28.0929 20.8715 26.1074 20.8715C23.3529 20.8715 22.2074 22.8515 22.2074 25.9625V35.2461H16.3747V16.0825ZM6.37472 34.997H12.2074V15.8315H6.37472V34.9952V34.997ZM13.042 9.58064C13.053 10.08 12.9641 10.5766 12.7806 11.0412C12.5971 11.5058 12.3226 11.9291 11.9733 12.2861C11.624 12.6432 11.2069 12.927 10.7465 13.1206C10.286 13.3143 9.79152 13.4141 9.29199 13.4141C8.79247 13.4141 8.29797 13.3143 7.83753 13.1206C7.37709 12.927 6.95997 12.6432 6.61066 12.2861C6.26135 11.9291 5.98689 11.5058 5.80337 11.0412C5.61986 10.5766 5.53099 10.08 5.54199 9.58064C5.56358 8.60037 5.96815 7.66753 6.66906 6.98188C7.36997 6.29624 8.31149 5.91231 9.29199 5.91231C10.2725 5.91231 11.214 6.29624 11.9149 6.98188C12.6158 7.66753 13.0204 8.60037 13.042 9.58064Z" fill="black"/>
</svg>
